<svg width="30" height="30" viewBox="0 0 30 30" fill="none" xmlns="http://www.w3.org/2000/svg">
<path opacity="0.12" d="M15.0005 27.5002C21.9041 27.5002 27.5005 21.9038 27.5005 15.0002C27.5005 8.09669 21.9041 2.50024 15.0005 2.50024C8.09693 2.50024 2.50049 8.09669 2.50049 15.0002C2.50049 21.9038 8.09693 27.5002 15.0005 27.5002Z" fill="#3EB5F1"/>
<path d="M27.5005 13.8574V15.0074C27.499 17.7029 26.6261 20.3257 25.0122 22.4847C23.3982 24.6436 21.1296 26.223 18.5447 26.9873C15.9598 27.7516 13.1971 27.6598 10.6686 26.7256C8.14009 25.7915 5.98131 24.065 4.51419 21.8037C3.04707 19.5424 2.35023 16.8675 2.52758 14.1778C2.70494 11.4881 3.747 8.92781 5.49834 6.87874C7.24968 4.82967 9.61647 3.40163 12.2457 2.80758C14.875 2.21354 17.6258 2.48532 20.088 3.5824M27.5005 5.00024L21.2505 11.2565L15.0005 17.5127L11.2505 13.7627" stroke="#D24A43" stroke-width="2.5" stroke-linecap="round" stroke-linejoin="round"/>
</svg>
