<svg width="26" height="25" viewBox="0 0 26 25" fill="none" xmlns="http://www.w3.org/2000/svg">
<path d="M15.5752 6.24992C16.5926 6.44842 17.5277 6.94602 18.2607 7.67902C18.9936 8.41202 19.4912 9.34707 19.6898 10.3645M15.5752 2.08325C17.689 2.31808 19.6602 3.26468 21.165 4.76764C22.6698 6.27059 23.6189 8.24055 23.8564 10.3541M11.5929 14.4406C10.3412 13.189 9.35289 11.7737 8.62789 10.2637C8.56553 10.1338 8.53435 10.0689 8.5104 9.98669C8.42527 9.69466 8.48641 9.33606 8.66351 9.08873C8.71334 9.01914 8.77288 8.9596 8.89196 8.84052C9.25613 8.47635 9.43822 8.29426 9.55726 8.11116C10.0062 7.42065 10.0062 6.53046 9.55726 5.83995C9.43822 5.65685 9.25613 5.47476 8.89196 5.11059L8.68897 4.9076C8.13538 4.35401 7.85859 4.07722 7.56132 3.92686C6.97011 3.62783 6.27191 3.62783 5.6807 3.92686C5.38343 4.07722 5.10664 4.35402 4.55305 4.9076L4.38885 5.0718C3.83716 5.62349 3.56132 5.89934 3.35064 6.27437C3.11687 6.69053 2.94878 7.33687 2.9502 7.81419C2.95148 8.24434 3.03493 8.53832 3.20181 9.12629C4.09865 12.2861 5.79081 15.2677 8.27829 17.7552C10.7658 20.2427 13.7474 21.9348 16.9072 22.8317C17.4951 22.9985 17.7891 23.082 18.2193 23.0833C18.6966 23.0847 19.3429 22.9166 19.7591 22.6828C20.1341 22.4722 20.41 22.1963 20.9617 21.6446L21.1259 21.4804C21.6795 20.9268 21.9562 20.65 22.1066 20.3528C22.4056 19.7616 22.4056 19.0634 22.1066 18.4722C21.9562 18.1749 21.6795 17.8981 21.1259 17.3445L20.9229 17.1415C20.5587 16.7773 20.3766 16.5953 20.1935 16.4762C19.503 16.0273 18.6128 16.0273 17.9223 16.4762C17.7392 16.5953 17.5571 16.7773 17.1929 17.1415C17.0739 17.2606 17.0143 17.3201 16.9447 17.37C16.6974 17.5471 16.3388 17.6082 16.0468 17.5231C15.9646 17.4991 15.8997 17.4679 15.7698 17.4056C14.2598 16.6806 12.8445 15.6923 11.5929 14.4406Z" stroke="#D24A43" stroke-width="2" stroke-linecap="round" stroke-linejoin="round"/>
</svg>
