<svg width="31" height="30" viewBox="0 0 31 30" fill="none" xmlns="http://www.w3.org/2000/svg">
<path opacity="0.12" d="M17.961 15.8942C17.1345 16.4727 16.7213 16.762 16.2718 16.874C15.8747 16.973 15.4595 16.973 15.0624 16.874C14.613 16.762 14.1997 16.4727 13.3733 15.8942L3.16711 8.74988C3.16711 6.67881 4.84605 4.99988 6.91711 4.99988H24.4171C26.4882 4.99988 28.1671 6.67881 28.1671 8.74988L17.961 15.8942Z" fill="#D24A43"/>
<path d="M27.5421 22.4999L19.2385 14.9999M12.0957 14.9999L3.79216 22.4999M3.16711 8.74988L13.3733 15.8942C14.1997 16.4727 14.613 16.762 15.0624 16.874C15.4595 16.973 15.8747 16.973 16.2718 16.874C16.7213 16.762 17.1345 16.4727 17.961 15.8942L28.1671 8.74988M9.16712 24.9999H22.1671C24.2673 24.9999 25.3174 24.9999 26.1196 24.5912C26.8252 24.2316 27.3989 23.658 27.7584 22.9523C28.1671 22.1502 28.1671 21.1001 28.1671 18.9999V10.9999C28.1671 8.89968 28.1671 7.84958 27.7584 7.04741C27.3989 6.34181 26.8252 5.76813 26.1196 5.4086C25.3174 4.99988 24.2673 4.99988 22.1671 4.99988H9.16712C7.06692 4.99988 6.01682 4.99988 5.21465 5.4086C4.50904 5.76813 3.93537 6.34181 3.57584 7.04741C3.16711 7.84958 3.16711 8.89968 3.16711 10.9999V18.9999C3.16711 21.1001 3.16711 22.1502 3.57584 22.9523C3.93537 23.658 4.50904 24.2316 5.21465 24.5912C6.01682 24.9999 7.06692 24.9999 9.16712 24.9999Z" stroke="#D24A43" stroke-width="2.5" stroke-linecap="round" stroke-linejoin="round"/>
</svg>
