<svg width="30" height="30" viewBox="0 0 30 30" fill="none" xmlns="http://www.w3.org/2000/svg">
<path opacity="0.12" d="M15 16.25C17.0711 16.25 18.75 14.5711 18.75 12.5C18.75 10.4289 17.0711 8.75 15 8.75C12.9289 8.75 11.25 10.4289 11.25 12.5C11.25 14.5711 12.9289 16.25 15 16.25Z" fill="#D24A43"/>
<path d="M14.9995 16.2501C17.0706 16.2501 18.7495 14.5712 18.7495 12.5001C18.7495 10.4291 17.0706 8.75012 14.9995 8.75012C12.9284 8.75012 11.2495 10.4291 11.2495 12.5001C11.2495 14.5712 12.9284 16.2501 14.9995 16.2501Z" stroke="#D24A43" stroke-width="2.5" stroke-linecap="round" stroke-linejoin="round"/>
<path d="M14.9995 27.5001C19.9995 22.5001 24.9995 18.023 24.9995 12.5001C24.9995 6.97728 20.5224 2.50012 14.9995 2.50012C9.47666 2.50012 4.99951 6.97728 4.99951 12.5001C4.99951 18.023 9.99951 22.5001 14.9995 27.5001Z" stroke="#D24A43" stroke-width="2.5" stroke-linecap="round" stroke-linejoin="round"/>
</svg>
