<svg width="31" height="30" viewBox="0 0 31 30" fill="none" xmlns="http://www.w3.org/2000/svg">
<path opacity="0.12" d="M9.55927 12.3166C10.4293 14.1286 11.6153 15.8269 13.1172 17.3289C14.6192 18.8308 16.3175 20.0168 18.1295 20.8868C18.2854 20.9617 18.3633 20.9991 18.4619 21.0278C18.8124 21.13 19.2427 21.0566 19.5395 20.8441C19.623 20.7843 19.6944 20.7128 19.8373 20.5699C20.2743 20.1329 20.4928 19.9144 20.7126 19.7716C21.5412 19.2328 22.6094 19.2328 23.438 19.7716C23.6577 19.9144 23.8762 20.1329 24.3133 20.5699L24.5568 20.8135C25.2211 21.4778 25.5533 21.81 25.7337 22.1667C26.0926 22.8762 26.0926 23.714 25.7337 24.4234C25.5533 24.7802 25.2211 25.1123 24.5568 25.7766L24.3598 25.9737C23.6978 26.6357 23.3668 26.9667 22.9167 27.2195C22.4173 27.5 21.6417 27.7018 21.0689 27.7001C20.5528 27.6985 20.2 27.5984 19.4944 27.3981C15.7027 26.3219 12.1247 24.2913 9.13975 21.3063C6.15477 18.3214 4.12418 14.7434 3.04797 10.9517C2.84771 10.2461 2.74758 9.89333 2.74604 9.37715C2.74434 8.80437 2.94604 8.02876 3.22657 7.52938C3.47938 7.07934 3.81039 6.74832 4.47242 6.08629L4.66946 5.88925C5.33377 5.22495 5.66592 4.8928 6.02264 4.71237C6.7321 4.35353 7.56993 4.35353 8.27938 4.71237C8.6361 4.8928 8.96826 5.22495 9.63256 5.88925L9.87615 6.13284C10.3132 6.56985 10.5317 6.78835 10.6745 7.00807C11.2133 7.83668 11.2133 8.90491 10.6745 9.73352C10.5317 9.95325 10.3132 10.1717 9.87615 10.6088C9.73326 10.7516 9.66181 10.8231 9.60201 10.9066C9.3895 11.2034 9.31612 11.6337 9.41827 11.9842C9.44702 12.0828 9.48444 12.1607 9.55927 12.3166Z" fill="#D24A43"/>
<path d="M17.896 7.5C19.1169 7.73821 20.239 8.33532 21.1186 9.21492C21.9982 10.0945 22.5953 11.2166 22.8335 12.4375M17.896 2.5C20.4326 2.7818 22.798 3.91772 24.6038 5.72126C26.4096 7.5248 27.5485 9.88876 27.8335 12.425M13.1172 17.3288C11.6153 15.8269 10.4293 14.1286 9.55927 12.3165C9.48444 12.1607 9.44702 12.0827 9.41827 11.9841C9.31612 11.6337 9.3895 11.2034 9.60201 10.9066C9.66181 10.8231 9.73326 10.7516 9.87615 10.6087C10.3132 10.1717 10.5317 9.95321 10.6745 9.73349C11.2133 8.90488 11.2133 7.83665 10.6745 7.00804C10.5317 6.78832 10.3132 6.56981 9.87615 6.13281L9.63256 5.88922C8.96826 5.22491 8.6361 4.89276 8.27938 4.71233C7.56993 4.3535 6.7321 4.3535 6.02264 4.71233C5.66592 4.89276 5.33377 5.22492 4.66946 5.88922L4.47242 6.08626C3.81039 6.74829 3.47938 7.07931 3.22657 7.52935C2.94604 8.02873 2.74434 8.80434 2.74604 9.37712C2.74758 9.8933 2.84771 10.2461 3.04797 10.9516C4.12418 14.7434 6.15477 18.3213 9.13975 21.3063C12.1247 24.2913 15.7027 26.3219 19.4944 27.3981C20.2 27.5984 20.5528 27.6985 21.0689 27.7C21.6417 27.7017 22.4173 27.5 22.9167 27.2195C23.3668 26.9667 23.6978 26.6357 24.3598 25.9736L24.5568 25.7766C25.2211 25.1123 25.5533 24.7801 25.7337 24.4234C26.0926 23.714 26.0926 22.8761 25.7337 22.1667C25.5533 21.81 25.2211 21.4778 24.5568 20.8135L24.3133 20.5699C23.8762 20.1329 23.6577 19.9144 23.438 19.7715C22.6094 19.2328 21.5412 19.2328 20.7126 19.7715C20.4928 19.9144 20.2743 20.1329 19.8373 20.5699C19.6944 20.7128 19.623 20.7842 19.5395 20.8441C19.2427 21.0566 18.8124 21.1299 18.4619 21.0278C18.3633 20.999 18.2854 20.9616 18.1295 20.8868C16.3175 20.0168 14.6192 18.8308 13.1172 17.3288Z" stroke="#D24A43" stroke-width="2.5" stroke-linecap="round" stroke-linejoin="round"/>
</svg>
